<?xml version="1.0" encoding="utf-8"?>
<!-- Generator: Adobe Illustrator 27.0.0, SVG Export Plug-In . SVG Version: 6.00 Build 0)  -->
<svg version="1.1" id="Layer_1" xmlns="http://www.w3.org/2000/svg" xmlns:xlink="http://www.w3.org/1999/xlink" x="0px" y="0px"
	 viewBox="0 0 1080 1080" style="enable-background:new 0 0 1080 1080;" xml:space="preserve">
<style type="text/css">
	.st0{fill:#E51414;}
	.st1{fill:#FFFFFF;}
</style>
<circle class="st0" cx="540" cy="540" r="540"/>
<g>
	<g>
		<path class="st1" d="M268.09,535.05c0,2.11,0,3.75,0,5.4c0,80.43,0,160.86,0,241.29c0,5.04,0,5.05-5.02,5.05
			c-31.4,0-62.81,0-94.21,0c-1.41,0-2.83,0-4.5,0c0-118.6,0-236.85,0-355.41c123.06,0,246.2,0,369.85,0c0,1.26,0,2.54,0,3.82
			c0,31.88-0.06,63.77,0.08,95.65c0.02,3.61-1.18,4.27-4.5,4.27c-85.34-0.09-170.69-0.07-256.03-0.07
			C272.09,535.05,270.42,535.05,268.09,535.05z"/>
		<path class="st1" d="M421.33,286.49c2.05,0,3.32,0,4.6,0c122.37,0,244.73,0.01,367.1-0.05c2.71,0,4.66,0.72,6.6,2.68
			c30.44,30.74,60.95,61.41,91.49,92.05c2.78,2.79,5.87,5.25,8.82,7.87c-0.26,0.4-0.51,0.81-0.77,1.21
			c-0.98,0.08-1.96,0.22-2.93,0.22c-122.73,0.01-245.45,0.02-368.18-0.06c-1.6,0-3.65-0.63-4.75-1.72
			c-33.55-33.4-67.01-66.89-100.48-100.37C422.5,287.99,422.23,287.59,421.33,286.49z"/>
		<path class="st1" d="M421.71,268.87c0-34.55,0-68.81,0-103.5c1.35-0.07,2.61-0.18,3.88-0.18c121.89-0.01,243.78,0,365.66-0.04
			c2.6,0,4.14,0.12,4.12,3.53c-0.13,32.48-0.08,64.96-0.09,97.44c0,0.82-0.1,1.65-0.17,2.76
			C670.69,268.87,546.38,268.87,421.71,268.87z"/>
		<path class="st1" d="M638.72,656.12c-2.03,0-3.21,0-4.4,0c-74.77,0-149.54-0.02-224.31,0.06c-2.88,0-4.85-0.84-6.87-2.87
			c-32.56-32.68-65.2-65.28-97.83-97.89c-0.84-0.83-1.83-1.51-2.75-2.27c0.14-0.29,0.28-0.57,0.42-0.86
			c1.11-0.06,2.21-0.16,3.32-0.16c75.37-0.01,150.74-0.02,226.1,0.07c1.7,0,3.89,0.66,5.04,1.81
			c33.17,33.24,66.25,66.59,99.33,99.92C637.27,654.43,637.71,654.97,638.72,656.12z"/>
		<path class="st1" d="M388.98,898.94c-12.54-13.37-24.42-26.03-36.3-38.68c-21.88-23.32-43.78-46.63-65.59-70.01
			c-1.02-1.09-1.83-2.88-1.83-4.34c-0.09-74.78-0.08-149.56-0.07-224.35c0-0.46,0.07-0.92,0.15-1.85c0.85,0.65,1.51,1.05,2.03,1.58
			c33.31,33.29,66.63,66.58,99.86,99.96c1.1,1.1,1.86,3.08,1.86,4.65c0.09,76.46,0.08,152.92,0.07,229.38
			C389.16,896.19,389.07,897.1,388.98,898.94z"/>
		<path class="st1" d="M380.61,914.81c-2.05,0-3.21,0-4.37,0c-31.88,0-63.76-0.03-95.64,0.05c-2.46,0.01-4.25-0.58-5.97-2.41
			c-33.25-35.49-66.55-70.93-99.83-106.39c-0.32-0.34-0.54-0.76-1.15-1.62c1.48-0.1,2.58-0.24,3.68-0.24
			c32.12-0.01,64.24-0.05,96.36,0.09c1.87,0.01,4.25,0.99,5.52,2.34c33.05,35.02,65.99,70.14,98.94,105.25
			C378.8,912.56,379.37,913.32,380.61,914.81z"/>
		<path class="st1" d="M915.32,381.21c-3.93-3.86-7.64-7.42-11.27-11.06c-24.53-24.61-49.04-49.24-73.55-73.87
			c-5.32-5.35-10.68-10.67-15.86-16.16c-1.02-1.08-1.85-2.87-1.85-4.33c-0.1-32.71-0.08-65.43-0.07-98.14
			c0-0.68,0.11-1.37,0.22-2.57c0.94,0.77,1.59,1.2,2.13,1.74c32.97,33.12,65.93,66.24,98.84,99.42c0.9,0.91,1.68,2.43,1.68,3.67
			c0.09,33.31,0.06,66.62,0.05,99.94C915.62,380.18,915.48,380.51,915.32,381.21z"/>
		<path class="st1" d="M654.52,647.01c-11-10.83-21.73-21.27-32.31-31.85c-12.8-12.79-25.46-25.71-38.2-38.56
			c-10.04-10.13-20.15-20.18-30.1-30.39c-1.18-1.22-2.18-3.23-2.19-4.89c-0.13-32.6-0.1-65.19-0.09-97.79c0-0.8,0.12-1.61,0.28-3.67
			c2.28,2.52,3.85,4.41,5.57,6.14c21.52,21.69,43.07,43.36,64.61,65.03c10.14,10.2,20.32,20.35,30.36,30.65
			c1.18,1.22,2.19,3.23,2.19,4.88c0.13,32.6,0.1,65.19,0.09,97.79C654.72,645.15,654.6,645.95,654.52,647.01z"/>
	</g>
</g>
</svg>
