<?xml version="1.0" encoding="utf-8"?>
<!-- Generator: Adobe Illustrator 27.2.0, SVG Export Plug-In . SVG Version: 6.00 Build 0)  -->
<svg version="1.1" id="Layer_1" xmlns="http://www.w3.org/2000/svg" xmlns:xlink="http://www.w3.org/1999/xlink" x="0px" y="0px"
	 viewBox="0 0 1265.42 283.46" style="enable-background:new 0 0 1265.42 283.46;" xml:space="preserve">
<style type="text/css">
	.st0{fill:#E51414;}
	.st1{fill:#FFFFFF;}
	.st2{opacity:0.39;}
	.st3{fill:none;stroke:#000000;stroke-miterlimit:10;}
	.st4{fill:none;stroke:#000000;stroke-width:1.274;stroke-miterlimit:10;}
	.st5{fill:none;}
	.st6{fill:#606060;}
</style>
<g>
	<circle class="st0" cx="1100.71" cy="141.73" r="123.32"/>
	<g>
		<polygon class="st1" points="1039.79,202.88 1015.69,202.88 1039.79,228.55 1063.89,228.55 		"/>
		<polygon class="st1" points="1099.41,116.47 1099.41,140.57 1037.73,140.57 1037.73,198.91 1013.63,198.91 1013.63,116.47 		"/>
		<polygon class="st1" points="1103.38,142.63 1103.38,118.53 1127.32,142.63 1127.32,166.73 		"/>
		<polyline class="st1" points="1099.76,144.54 1123.7,168.65 1069.7,168.65 1045.6,144.55 		"/>
		<polygon class="st1" points="1065.8,170.22 1065.8,224.93 1041.71,199.27 1041.71,146.12 		"/>
		<rect x="1073.27" y="54.91" class="st1" width="86.61" height="24.1"/>
		<polygon class="st1" points="1163.85,81.07 1163.85,56.97 1187.79,81.07 1187.79,105.17 		"/>
		<polyline class="st1" points="1160.24,82.98 1184.18,107.09 1097.25,107.09 1073.15,82.99 		"/>
		<polygon class="st1" points="1065.33,65.81 1065.33,65.81 1065.32,65.81 		"/>
	</g>
</g>
<g>
	<path class="st0" d="M783.1,264.4c-13.06,0-27.35,0-40.41,0c0.42,0.45-0.03-47.44,0-56.77c-0.03-0.2-20.2,0.71-29.31-0.52
		c-25.94-3.5-47.44-22.98-52.29-48.75c-1.74-9.27-1.75-18.95-1.89-28.45c-0.27-18.79-0.08-37.58-0.08-57.9c42.63,0,81.84,0,123.97,0
		c0,31.2,0,62.28,0,94.44c0.4-0.05,26.01-0.05,25.87,0c0-32.23,0-61.96,0-94.44c42.37,0,82.24,0,124.25,0
		c0.2,0.17,2.09,58.08-0.59,86.09c-2.66,27.85-28.1,45.97-57.4,47.48c-19.81,1.02-80.64,1.43-92.12,1.95
		C783.22,207.86,783,263.52,783.1,264.4z M850.4,166.45c41.19,0.95,41.03-6.7,41.08-54.03c-13.34,0-26.78,0-41.08,0
		C850.4,131.31,850.4,148.01,850.4,166.45z M742.7,112.22c-15.78,0-28.55,0-40.95,0c-1.39,44.21,1.09,55.74,40.95,54.24
		C742.7,149.93,742.7,131.47,742.7,112.22z"/>
	<path class="st0" d="M42.79,72.55c14.49,0,24.69,0,39.26,0c0,26.09-0.5,103.07,0.16,116.32c1.29,26.05,11.23,35.83,36.57,36.64
		c10.36,0.33,20.75,0.06,34.79,0.06c0-50.96,0-101.55,0-153.01c14.46,0,27.36,0,41.88,0c0,30.71,0,62.37,0,94.61
		c24.85,0,44.09,0,69.31,0c0-31.41,0-62.62,0-94.61c14.8,0,25.67,0,38.45,0c0,44.65,0,88.38,0,135.41c-35.24,0-70.63,0-107.76,0
		c0.78-0.31,0.12,56.55,0,55.98c-33.91,0-69.6,2.32-102.06-0.72c-27.26-2.55-48.26-26.88-50-57.85
		C40.98,162.13,42.79,118.64,42.79,72.55z"/>
	<path class="st0" d="M482.98,206.76c0-65.34,0-126.66,0-190.14c11.93,0,22.7,0,37.18,0c0,49.02,0,100.85,0,148.61
		c0.53,0.33,8.54-0.05,11.12,0c49.08,0.9,62.93,4.88,60.51-55.05c-1.14-28.36,0.3-93.46,0-93.56c10.91,0,24.54,0,38.84,0
		c0,46.36,2.03,92.83-0.74,138.69c-1.73,28.57-27.4,49.3-56.29,50.96c-22.63,1.3-45.4,0.41-68.1,0.48
		C499.04,206.78,492.58,206.76,482.98,206.76z"/>
	<path class="st0" d="M330.94,168.19c29.09,0,56.58,0,83.96,0c0.33,0.41,0.19-17.29-0.26-24.6c-1.25-20.49-11.47-31.04-31.91-32.01
		c-16.74-0.8-33.55-0.16-51.67-0.16c0-14.31,0-25.22,0-38.77c24.26,0,47.81-2,70.86,0.52c27.22,2.97,50.1,27.78,52.32,56.01
		c1.99,25.23,0.42,50.74,0.42,77.8c-42.28,0-82.33,0-123.72,0C330.94,194.57,330.94,183.62,330.94,168.19z"/>
	<path class="st0" d="M231.65,263.61c0-12.37,0-23.27,0-36.09c24.17,0,47.21,0,71.84,0c0,12.37,0,23.32,0,36.09
		C279.36,263.61,256.28,263.61,231.65,263.61z"/>
	<path class="st0" d="M136.95,18.26c0,13.12,0,24.13,0,37.55c-11.92,0-23.32,0-36.54,0c0-12.43,0-24,0-37.55
		C112.16,18.26,122.9,18.26,136.95,18.26z"/>
	<path class="st0" d="M852.79,17.58c13.23,0,23.25,0,35.61,0c0,12.75,0,24.34,0,38.31c-11.05,0-22.56,0-35.61,0
		C852.79,43.34,852.79,31.64,852.79,17.58z"/>
</g>
</svg>
